<mxfile host="65bd71144e">
    <diagram id="Qxzz1tlQrPEmq97wb1e-" name="Strona-1">
        <mxGraphModel dx="900" dy="865" grid="0" gridSize="10" guides="1" tooltips="1" connect="1" arrows="1" fold="1" page="1" pageScale="1" pageWidth="1169" pageHeight="827" math="0" shadow="0">
            <root>
                <mxCell id="0"/>
                <mxCell id="1" parent="0"/>
                <mxCell id="4gdm5aZiBMjKb-svObls-1" value="Recepcjonista" style="shape=umlActor;verticalLabelPosition=bottom;verticalAlign=top;html=1;strokeWidth=2;" vertex="1" parent="1">
                    <mxGeometry x="969" y="439" width="40" height="60" as="geometry"/>
                </mxCell>
                <mxCell id="4gdm5aZiBMjKb-svObls-2" value="Formularz rejestracji klienta" style="shape=umlBoundary;whiteSpace=wrap;html=1;strokeWidth=2;" vertex="1" parent="1">
                    <mxGeometry x="668" y="230" width="110" height="90" as="geometry"/>
                </mxCell>
                <mxCell id="4gdm5aZiBMjKb-svObls-3" value="" style="edgeStyle=none;html=1;strokeWidth=2;endArrow=none;startFill=0;" edge="1" parent="1" source="4gdm5aZiBMjKb-svObls-5" target="4gdm5aZiBMjKb-svObls-7">
                    <mxGeometry relative="1" as="geometry"/>
                </mxCell>
                <mxCell id="4gdm5aZiBMjKb-svObls-25" style="edgeStyle=orthogonalEdgeStyle;rounded=0;orthogonalLoop=1;jettySize=auto;html=1;entryX=0.5;entryY=0;entryDx=0;entryDy=0;strokeWidth=2;endArrow=none;startFill=0;" edge="1" parent="1" source="4gdm5aZiBMjKb-svObls-5" target="4gdm5aZiBMjKb-svObls-6">
                    <mxGeometry relative="1" as="geometry">
                        <mxPoint x="484.8571428571429" y="618.8571428571429" as="targetPoint"/>
                    </mxGeometry>
                </mxCell>
                <mxCell id="4gdm5aZiBMjKb-svObls-5" value="Rejestrowanie&lt;div&gt;klienta&lt;/div&gt;" style="ellipse;shape=umlControl;whiteSpace=wrap;html=1;strokeWidth=2;" vertex="1" parent="1">
                    <mxGeometry x="447" y="226" width="86" height="90" as="geometry"/>
                </mxCell>
                <mxCell id="4gdm5aZiBMjKb-svObls-6" value="Baza Danych" style="ellipse;shape=umlEntity;whiteSpace=wrap;html=1;strokeWidth=2;" vertex="1" parent="1">
                    <mxGeometry x="445" y="626" width="90" height="80" as="geometry"/>
                </mxCell>
                <mxCell id="4gdm5aZiBMjKb-svObls-7" value="Wybór rodzaju karnetu" style="ellipse;shape=umlControl;whiteSpace=wrap;html=1;strokeWidth=2;" vertex="1" parent="1">
                    <mxGeometry x="195" y="226" width="86" height="90" as="geometry"/>
                </mxCell>
                <mxCell id="4gdm5aZiBMjKb-svObls-24" style="rounded=0;orthogonalLoop=1;jettySize=auto;html=1;entryX=1;entryY=0.5;entryDx=0;entryDy=0;strokeWidth=2;endArrow=none;startFill=0;" edge="1" parent="1" source="4gdm5aZiBMjKb-svObls-8" target="4gdm5aZiBMjKb-svObls-6">
                    <mxGeometry relative="1" as="geometry"/>
                </mxCell>
                <mxCell id="4gdm5aZiBMjKb-svObls-8" value="Formularz dodania klienta z kartą partnerską" style="shape=umlBoundary;whiteSpace=wrap;html=1;strokeWidth=2;" vertex="1" parent="1">
                    <mxGeometry x="666" y="623" width="109" height="90" as="geometry"/>
                </mxCell>
                <mxCell id="4gdm5aZiBMjKb-svObls-9" value="" style="endArrow=none;html=1;entryX=0;entryY=0.3333333333333333;entryDx=0;entryDy=0;entryPerimeter=0;exitX=1.017;exitY=0.491;exitDx=0;exitDy=0;exitPerimeter=0;strokeWidth=2;endFill=1;startArrow=classic;startFill=0;" edge="1" parent="1" source="4gdm5aZiBMjKb-svObls-2" target="4gdm5aZiBMjKb-svObls-1">
                    <mxGeometry width="50" height="50" relative="1" as="geometry">
                        <mxPoint x="704" y="226" as="sourcePoint"/>
                        <mxPoint x="754" y="176" as="targetPoint"/>
                    </mxGeometry>
                </mxCell>
                <mxCell id="4gdm5aZiBMjKb-svObls-10" value="" style="endArrow=none;html=1;entryX=0;entryY=0.3333333333333333;entryDx=0;entryDy=0;entryPerimeter=0;exitX=0.959;exitY=0.335;exitDx=0;exitDy=0;exitPerimeter=0;strokeWidth=2;endFill=1;startArrow=classic;startFill=0;" edge="1" parent="1" source="4gdm5aZiBMjKb-svObls-8" target="4gdm5aZiBMjKb-svObls-1">
                    <mxGeometry width="50" height="50" relative="1" as="geometry">
                        <mxPoint x="705" y="106" as="sourcePoint"/>
                        <mxPoint x="785" y="136" as="targetPoint"/>
                    </mxGeometry>
                </mxCell>
                <mxCell id="4gdm5aZiBMjKb-svObls-11" style="html=1;entryX=0.979;entryY=0.532;entryDx=0;entryDy=0;entryPerimeter=0;strokeWidth=2;endArrow=none;startFill=0;" edge="1" parent="1" source="4gdm5aZiBMjKb-svObls-2" target="4gdm5aZiBMjKb-svObls-5">
                    <mxGeometry relative="1" as="geometry"/>
                </mxCell>
                <mxCell id="4gdm5aZiBMjKb-svObls-13" style="edgeStyle=none;html=1;entryX=0;entryY=0.5;entryDx=0;entryDy=0;endArrow=none;endFill=0;strokeWidth=2;" edge="1" parent="1" source="4gdm5aZiBMjKb-svObls-14" target="4gdm5aZiBMjKb-svObls-6">
                    <mxGeometry relative="1" as="geometry"/>
                </mxCell>
                <mxCell id="4gdm5aZiBMjKb-svObls-14" value="Generewanie&lt;div&gt;karty członkowskiej&lt;/div&gt;" style="ellipse;shape=umlControl;whiteSpace=wrap;html=1;strokeWidth=2;" vertex="1" parent="1">
                    <mxGeometry x="204" y="619" width="90" height="90" as="geometry"/>
                </mxCell>
                <mxCell id="4gdm5aZiBMjKb-svObls-15" style="edgeStyle=none;html=1;entryX=1;entryY=0;entryDx=0;entryDy=0;exitX=0.315;exitY=0.902;exitDx=0;exitDy=0;exitPerimeter=0;endArrow=none;endFill=1;strokeWidth=2;startArrow=none;startFill=0;" edge="1" parent="1" source="4gdm5aZiBMjKb-svObls-16" target="4gdm5aZiBMjKb-svObls-6">
                    <mxGeometry relative="1" as="geometry"/>
                </mxCell>
                <mxCell id="4gdm5aZiBMjKb-svObls-16" value="Formularz redagowania danych" style="shape=umlBoundary;whiteSpace=wrap;html=1;strokeWidth=2;" vertex="1" parent="1">
                    <mxGeometry x="665" y="446" width="110" height="90" as="geometry"/>
                </mxCell>
                <mxCell id="4gdm5aZiBMjKb-svObls-17" value="" style="endArrow=none;html=1;exitX=0.901;exitY=0.144;exitDx=0;exitDy=0;exitPerimeter=0;strokeWidth=2;entryX=0;entryY=0.3333333333333333;entryDx=0;entryDy=0;entryPerimeter=0;endFill=1;startFill=1;startArrow=classic;" edge="1" parent="1" source="4gdm5aZiBMjKb-svObls-16" target="4gdm5aZiBMjKb-svObls-1">
                    <mxGeometry width="50" height="50" relative="1" as="geometry">
                        <mxPoint x="475" y="316" as="sourcePoint"/>
                        <mxPoint x="939" y="247" as="targetPoint"/>
                    </mxGeometry>
                </mxCell>
                <mxCell id="4gdm5aZiBMjKb-svObls-18" style="edgeStyle=none;html=1;entryX=0.39;entryY=0.141;entryDx=0;entryDy=0;endArrow=none;endFill=0;strokeWidth=2;entryPerimeter=0;" edge="1" parent="1" source="4gdm5aZiBMjKb-svObls-19" target="4gdm5aZiBMjKb-svObls-14">
                    <mxGeometry relative="1" as="geometry"/>
                </mxCell>
                <mxCell id="4gdm5aZiBMjKb-svObls-26" style="rounded=0;orthogonalLoop=1;jettySize=auto;html=1;entryX=0;entryY=0;entryDx=0;entryDy=0;strokeWidth=2;endArrow=none;startFill=0;" edge="1" parent="1" source="4gdm5aZiBMjKb-svObls-19" target="4gdm5aZiBMjKb-svObls-6">
                    <mxGeometry relative="1" as="geometry"/>
                </mxCell>
                <mxCell id="4gdm5aZiBMjKb-svObls-19" value="Płatność" style="ellipse;shape=umlControl;whiteSpace=wrap;html=1;strokeWidth=2;" vertex="1" parent="1">
                    <mxGeometry x="193" y="446" width="90" height="100" as="geometry"/>
                </mxCell>
                <mxCell id="4gdm5aZiBMjKb-svObls-20" style="edgeStyle=none;html=1;entryX=0.508;entryY=0.107;entryDx=0;entryDy=0;entryPerimeter=0;strokeWidth=2;endArrow=none;startFill=0;" edge="1" parent="1" source="4gdm5aZiBMjKb-svObls-7" target="4gdm5aZiBMjKb-svObls-19">
                    <mxGeometry relative="1" as="geometry"/>
                </mxCell>
                <mxCell id="4gdm5aZiBMjKb-svObls-30" style="rounded=0;orthogonalLoop=1;jettySize=auto;html=1;strokeWidth=2;exitX=0;exitY=0.3333333333333333;exitDx=0;exitDy=0;exitPerimeter=0;" edge="1" parent="1" source="4gdm5aZiBMjKb-svObls-31" target="4gdm5aZiBMjKb-svObls-2">
                    <mxGeometry relative="1" as="geometry">
                        <mxPoint x="780.5714285714289" y="271" as="targetPoint"/>
                        <mxPoint x="972" y="271" as="sourcePoint"/>
                    </mxGeometry>
                </mxCell>
                <mxCell id="4gdm5aZiBMjKb-svObls-31" value="Klient" style="shape=umlActor;verticalLabelPosition=bottom;verticalAlign=top;html=1;strokeWidth=2;" vertex="1" parent="1">
                    <mxGeometry x="969" y="256" width="40" height="60" as="geometry"/>
                </mxCell>
            </root>
        </mxGraphModel>
    </diagram>
</mxfile>